<?xml version="1.0" encoding="UTF-8"?>
<svg xmlns="http://www.w3.org/2000/svg" xmlns:xlink="http://www.w3.org/1999/xlink" width="20px" height="20px" viewBox="0 0 20 20" version="1.1">
<g id="surface1">
<path style=" stroke:none;fill-rule:nonzero;fill:rgb(79.215686%,12.941176%,15.294118%);fill-opacity:1;" d="M 19.707031 9.972656 C 19.707031 15.351562 15.34375 19.710938 9.964844 19.710938 C 4.589844 19.710938 0.226562 15.351562 0.226562 9.972656 C 0.226562 4.59375 4.589844 0.234375 9.964844 0.234375 C 15.34375 0.234375 19.707031 4.59375 19.707031 9.972656 Z M 19.707031 9.972656 "/>
<path style=" stroke:none;fill-rule:nonzero;fill:rgb(100%,100%,100%);fill-opacity:1;" d="M 9.148438 3.496094 C 6.40625 3.789062 3.671875 5.898438 3.5625 8.921875 C 3.488281 10.765625 4.261719 12.148438 6.105469 12.539062 C 6.316406 11.667969 6.355469 11.195312 6.355469 11.195312 C 6.355469 11.195312 5.542969 10.417969 5.460938 9.921875 C 4.785156 5.945312 10.277344 3.226562 13.160156 6.003906 C 15.148438 7.933594 13.839844 13.859375 10.628906 13.246094 C 7.550781 12.65625 12.132812 7.9375 9.679688 7.011719 C 7.683594 6.253906 6.621094 9.316406 7.566406 10.832031 C 7.011719 13.445312 5.816406 15.90625 6.300781 19.179688 C 7.871094 18.09375 8.398438 16.015625 8.832031 13.851562 C 9.621094 14.304688 10.042969 14.785156 11.050781 14.855469 C 14.761719 15.128906 16.832031 11.328125 16.328125 7.816406 C 15.871094 4.707031 12.617188 3.121094 9.148438 3.496094 Z M 9.148438 3.496094 "/>
</g>
</svg>
